<svg width="36" height="36" viewBox="0 0 36 36" fill="none" xmlns="http://www.w3.org/2000/svg">
<path fill-rule="evenodd" clip-rule="evenodd" d="M24.4212 18.3286C24.526 18.4331 24.6091 18.5572 24.6658 18.6939C24.7225 18.8306 24.7517 18.9771 24.7517 19.1251C24.7517 19.273 24.7225 19.4196 24.6658 19.5562C24.6091 19.6929 24.526 19.8171 24.4212 19.9216L17.6712 26.6716C17.5667 26.7763 17.4426 26.8594 17.3059 26.9162C17.1692 26.9729 17.0227 27.0021 16.8747 27.0021C16.7267 27.0021 16.5802 26.9729 16.4435 26.9162C16.3069 26.8594 16.1827 26.7763 16.0782 26.6716L12.7032 23.2966C12.5986 23.192 12.5156 23.0678 12.459 22.9311C12.4024 22.7945 12.3733 22.648 12.3733 22.5001C12.3733 22.3521 12.4024 22.2057 12.459 22.069C12.5156 21.9323 12.5986 21.8082 12.7032 21.7036C12.9145 21.4923 13.201 21.3736 13.4997 21.3736C13.6476 21.3736 13.7941 21.4028 13.9308 21.4594C14.0674 21.516 14.1916 21.599 14.2962 21.7036L16.8747 24.2843L22.8282 18.3286C22.9327 18.2238 23.0569 18.1407 23.1935 18.084C23.3302 18.0272 23.4767 17.998 23.6247 17.998C23.7727 17.998 23.9192 18.0272 24.0559 18.084C24.1926 18.1407 24.3167 18.2238 24.4212 18.3286V18.3286Z" fill="#1780FE"/>
<path fill-rule="evenodd" clip-rule="evenodd" d="M31.5 4.5H4.5C3.90326 4.5 3.33097 4.73705 2.90901 5.15901C2.48705 5.58097 2.25 6.15326 2.25 6.75V31.5C2.25 32.0967 2.48705 32.669 2.90901 33.091C3.33097 33.5129 3.90326 33.75 4.5 33.75H31.5C32.0967 33.75 32.669 33.5129 33.091 33.091C33.5129 32.669 33.75 32.0967 33.75 31.5V6.75C33.75 6.15326 33.5129 5.58097 33.091 5.15901C32.669 4.73705 32.0967 4.5 31.5 4.5V4.5ZM4.5 2.25C3.30653 2.25 2.16193 2.72411 1.31802 3.56802C0.474106 4.41193 0 5.55653 0 6.75L0 31.5C0 32.6935 0.474106 33.8381 1.31802 34.682C2.16193 35.5259 3.30653 36 4.5 36H31.5C32.6935 36 33.8381 35.5259 34.682 34.682C35.5259 33.8381 36 32.6935 36 31.5V6.75C36 5.55653 35.5259 4.41193 34.682 3.56802C33.8381 2.72411 32.6935 2.25 31.5 2.25H4.5Z" fill="#1780FE"/>
<path fill-rule="evenodd" clip-rule="evenodd" d="M7.875 0C8.17337 0 8.45952 0.118526 8.67049 0.329505C8.88147 0.540483 9 0.826631 9 1.125V2.25C9 2.54837 8.88147 2.83452 8.67049 3.0455C8.45952 3.25647 8.17337 3.375 7.875 3.375C7.57663 3.375 7.29048 3.25647 7.07951 3.0455C6.86853 2.83452 6.75 2.54837 6.75 2.25V1.125C6.75 0.826631 6.86853 0.540483 7.07951 0.329505C7.29048 0.118526 7.57663 0 7.875 0V0ZM28.125 0C28.4234 0 28.7095 0.118526 28.9205 0.329505C29.1315 0.540483 29.25 0.826631 29.25 1.125V2.25C29.25 2.54837 29.1315 2.83452 28.9205 3.0455C28.7095 3.25647 28.4234 3.375 28.125 3.375C27.8266 3.375 27.5405 3.25647 27.3295 3.0455C27.1185 2.83452 27 2.54837 27 2.25V1.125C27 0.826631 27.1185 0.540483 27.3295 0.329505C27.5405 0.118526 27.8266 0 28.125 0V0Z" fill="#1780FE"/>
<path d="M5.625 9C5.625 8.70163 5.74353 8.41548 5.95451 8.20451C6.16548 7.99353 6.45163 7.875 6.75 7.875H29.25C29.5484 7.875 29.8345 7.99353 30.0455 8.20451C30.2565 8.41548 30.375 8.70163 30.375 9V11.25C30.375 11.5484 30.2565 11.8345 30.0455 12.0455C29.8345 12.2565 29.5484 12.375 29.25 12.375H6.75C6.45163 12.375 6.16548 12.2565 5.95451 12.0455C5.74353 11.8345 5.625 11.5484 5.625 11.25V9Z" fill="#1780FE"/>
</svg>
