<svg width="30" height="31" viewBox="0 0 30 31" fill="none" xmlns="http://www.w3.org/2000/svg">
<path d="M14.716 10.2378C12.0131 10.2378 9.80738 12.5395 9.80738 15.36C9.80738 18.1805 12.0131 20.4822 14.716 20.4822C17.4189 20.4822 19.6247 18.1805 19.6247 15.36C19.6247 12.5395 17.4189 10.2378 14.716 10.2378ZM29.4384 15.36C29.4384 13.2389 29.4568 11.137 29.3426 9.01972C29.2285 6.56045 28.6908 4.37786 26.9675 2.57952C25.2404 0.777347 23.1525 0.220171 20.7957 0.10105C18.763 -0.0180701 16.7487 0.00114296 14.7197 0.00114296C12.687 0.00114296 10.6727 -0.0180701 8.64373 0.10105C6.28699 0.220171 4.19537 0.78119 2.472 2.57952C0.744944 4.3817 0.210993 6.56045 0.0968382 9.01972C-0.0173168 11.1408 0.00109531 13.2427 0.00109531 15.36C0.00109531 17.4773 -0.0173168 19.583 0.0968382 21.7003C0.210993 24.1595 0.748627 26.3421 2.472 28.1405C4.19905 29.9427 6.28699 30.4998 8.64373 30.6189C10.6764 30.7381 12.6907 30.7189 14.7197 30.7189C16.7524 30.7189 18.7667 30.7381 20.7957 30.6189C23.1525 30.4998 25.2441 29.9388 26.9675 28.1405C28.6945 26.3383 29.2285 24.1595 29.3426 21.7003C29.4605 19.583 29.4384 17.4811 29.4384 15.36ZM14.716 23.2412C10.5365 23.2412 7.1634 19.7213 7.1634 15.36C7.1634 10.9987 10.5365 7.47884 14.716 7.47884C18.8956 7.47884 22.2687 10.9987 22.2687 15.36C22.2687 19.7213 18.8956 23.2412 14.716 23.2412ZM22.578 8.99666C21.6022 8.99666 20.8141 8.17435 20.8141 7.15606C20.8141 6.13777 21.6022 5.31545 22.578 5.31545C23.5539 5.31545 24.3419 6.13777 24.3419 7.15606C24.3422 7.39785 24.2968 7.63733 24.2082 7.86078C24.1197 8.08423 23.9898 8.28726 23.8259 8.45824C23.6621 8.62921 23.4675 8.76478 23.2534 8.85717C23.0392 8.94956 22.8097 8.99696 22.578 8.99666Z" fill="white"/>
</svg>
