<svg width="10" height="14" viewBox="0 0 10 14" fill="none" xmlns="http://www.w3.org/2000/svg">
<path d="M5.00016 6.66667C4.55814 6.66667 4.13421 6.49107 3.82165 6.17851C3.50909 5.86595 3.3335 5.44203 3.3335 5C3.3335 4.55798 3.50909 4.13405 3.82165 3.82149C4.13421 3.50893 4.55814 3.33334 5.00016 3.33334C5.44219 3.33334 5.86611 3.50893 6.17868 3.82149C6.49124 4.13405 6.66683 4.55798 6.66683 5C6.66683 5.21887 6.62372 5.4356 6.53996 5.63781C6.45621 5.84002 6.33344 6.02375 6.17868 6.17851C6.02391 6.33328 5.84018 6.45604 5.63797 6.5398C5.43576 6.62356 5.21903 6.66667 5.00016 6.66667ZM5.00016 0.333336C3.76249 0.333336 2.5755 0.825001 1.70033 1.70017C0.825161 2.57534 0.333496 3.76233 0.333496 5C0.333496 8.5 5.00016 13.6667 5.00016 13.6667C5.00016 13.6667 9.66683 8.5 9.66683 5C9.66683 3.76233 9.17517 2.57534 8.3 1.70017C7.42483 0.825001 6.23784 0.333336 5.00016 0.333336Z" fill="#1780FE"/>
</svg>
