<svg width="36" height="37" viewBox="0 0 36 37" fill="none" xmlns="http://www.w3.org/2000/svg">
<path d="M19.1637 6.5249H16.7637V19.8832L25.4346 24.0043L26.4649 21.8367L19.1637 18.3666V6.5249Z" fill="#1780FE"/>
<path d="M18 0.5625C8.0589 0.5625 0 8.6214 0 18.5625C0 28.5036 8.0589 36.5625 18 36.5625C27.9411 36.5625 36 28.5036 36 18.5625C36 8.6214 27.9411 0.5625 18 0.5625ZM18 34.1625C9.38438 34.1625 2.4 27.1781 2.4 18.5625C2.4 9.94688 9.38438 2.9625 18 2.9625C26.6156 2.9625 33.6 9.94688 33.6 18.5625C33.6 27.1781 26.6156 34.1625 18 34.1625Z" fill="#1780FE"/>
</svg>
