<svg width="540" height="340" viewBox="0 0 540 340" fill="none" xmlns="http://www.w3.org/2000/svg">
<mask id="mask0" mask-type="alpha" maskUnits="userSpaceOnUse" x="0" y="0" width="540" height="340">
<rect width="540" height="340" rx="43" fill="white"/>
</mask>
<g mask="url(#mask0)">
<path fill-rule="evenodd" clip-rule="evenodd" d="M31.1854 -42.9989C71.0379 -42.9678 113.017 -39.9623 140.286 -7.59333C169.993 27.6678 184.61 78.7705 173.034 125.374C161.938 170.043 122.507 193.71 85.1888 214.214C47.2298 235.071 4.23523 260.269 -33.462 238.832C-70.6435 217.687 -75.0255 163.993 -83.2778 118.412C-91.1392 74.9902 -102.758 26.9968 -78.1076 -7.76376C-53.3753 -42.6401 -8.71684 -43.03 31.1854 -42.9989Z" fill="#F0F0F0"/>
<path fill-rule="evenodd" clip-rule="evenodd" d="M26.5265 -25.999C63.2794 -25.9703 101.993 -23.1928 127.142 6.72064C154.538 39.3068 168.018 86.5327 157.342 129.6C147.109 170.881 110.745 192.752 76.3297 211.701C41.3231 230.975 1.67249 254.262 -33.0927 234.451C-67.3823 214.911 -71.4235 165.29 -79.034 123.167C-86.284 83.0392 -96.9989 38.6867 -74.2659 6.56314C-51.4572 -25.6674 -10.2722 -26.0278 26.5265 -25.999Z" fill="url(#paint0_linear)"/>
</g>
<path d="M62.4272 93.5439L56.7044 95.823C54.7293 96.5826 52.5516 95.6204 51.7919 93.6959C51.3867 92.683 51.4374 91.5688 51.8932 90.6066L53.1593 88.0743C53.8683 86.6563 53.5644 84.985 52.4503 83.8202L43.7394 75.1093L46.1197 72.729C46.8287 72.02 46.8287 70.8552 46.1197 70.1462L40.093 64.1195L40.6501 63.5624C41.3591 62.8533 41.3591 61.7392 40.7007 61.0301L24.14 43.5578C23.4816 42.8487 22.3168 42.7981 21.5571 43.5071C21.2026 43.8616 21 44.3174 21 44.8239V68.6268C21 69.1839 21.2532 69.6904 21.6584 70.0449L27.1786 74.7042C27.8877 75.3119 29.0018 75.2613 29.6602 74.6029L30.2173 74.0458L36.1934 80.0725C36.9024 80.7815 38.0672 80.7815 38.7762 80.0725L41.1565 77.6922L49.918 86.4537L48.6519 88.9859C46.8287 92.683 48.2974 97.1397 51.9945 99.0136C53.919 99.9758 56.1473 100.077 58.1225 99.2668L63.8453 96.9878L62.4272 93.5439ZM28.8499 70.1462L28.1915 70.8045L24.6464 67.8165V49.4325L36.7505 62.2456L36.1934 62.8533L28.8499 70.1462ZM37.4595 76.1729L32.6989 71.4123L37.4595 66.6517L42.2201 71.4123L37.4595 76.1729Z" fill="white"/>
<path d="M129.784 96.2792C129.075 95.9754 128.316 96.178 127.809 96.6844L102.183 122.311C101.474 123.02 101.474 124.184 102.183 124.893L103.652 126.362L96.4603 133.554C93.6242 131.832 90.3323 130.92 86.9898 130.92C78.8867 130.92 72.3535 135.833 72.3535 141.91C72.3535 147.987 78.9373 152.9 86.9898 152.9C95.0423 152.9 101.626 147.987 101.626 141.91C101.575 139.682 100.714 137.555 99.2458 135.883L106.235 128.894L107.703 130.363C108.412 131.072 109.577 131.072 110.286 130.363L130.443 110.206C130.797 109.852 131 109.396 131 108.89V97.8999C130.899 97.1908 130.443 96.5325 129.784 96.2792ZM86.9391 149.253C80.9631 149.253 75.9493 145.911 75.9493 141.91C75.9493 137.909 80.9631 134.567 86.9391 134.567C92.9152 134.567 97.929 137.909 97.929 141.91C97.929 145.911 92.9152 149.253 86.9391 149.253ZM127.252 108.181L108.919 126.514L106.032 123.627L127.252 102.407V108.181Z" fill="white"/>
<path d="M84.1538 104.889C83.3942 100.381 79.0894 97.2921 74.582 98.0518C71.0876 98.6596 68.3527 101.394 67.745 104.889L62.2248 138.112C61.8196 140.593 59.4393 142.265 56.9577 141.859C54.9826 141.556 53.4632 139.935 53.21 137.96L48.4494 103.167C48.3988 102.914 48.3481 102.66 48.1962 102.458L47.1833 100.837C44.094 95.8741 41.8656 90.4045 40.5489 84.7323L36.9531 85.5426C38.3205 91.6706 40.7008 97.4947 44.0434 102.812L44.8537 104.129L49.5636 138.517C50.1714 143.024 54.3242 146.164 58.8316 145.556C62.3767 145.05 65.2634 142.315 65.8205 138.77L71.3408 105.547C71.6953 103.319 73.6704 101.648 75.9494 101.648C78.2284 101.648 80.1529 103.268 80.5581 105.547L84.2551 127.578L87.8509 126.97L84.1538 104.889Z" fill="white"/>
<path d="M93.1178 50.3446C89.9779 50.3446 86.8885 51.003 84.0018 52.2185C78.836 54.3962 73.0119 54.3962 67.8462 52.2185C58.7808 48.3188 48.2467 50.5978 41.6123 57.9413L44.3471 60.4229C48.0442 56.3713 53.2606 54.0417 58.7808 53.991C61.4143 53.991 63.9972 54.5481 66.4281 55.561C72.5055 58.1439 79.3931 58.1439 85.4705 55.561C95.3462 51.3069 106.792 55.9155 110.995 65.7912C112.008 68.2222 112.565 70.805 112.565 73.4385C112.565 83.1117 109.831 92.6328 104.715 100.837L103.703 102.458C103.551 102.66 103.449 102.914 103.449 103.167L101.93 114.157L105.576 114.663L107.045 104.079L107.855 102.762C113.376 93.9496 116.262 83.77 116.262 73.3879C116.262 60.6761 105.88 50.3446 93.1178 50.3446Z" fill="white"/>
<defs>
<linearGradient id="paint0_linear" x1="-71.3352" y1="241.998" x2="122.742" y2="241.998" gradientUnits="userSpaceOnUse">
<stop stop-color="#00A02B"/>
<stop offset="1" stop-color="#00B831"/>
</linearGradient>
</defs>
</svg>
