<svg width="540" height="340" viewBox="0 0 540 340" fill="none" xmlns="http://www.w3.org/2000/svg">
<mask id="mask0" mask-type="alpha" maskUnits="userSpaceOnUse" x="0" y="0" width="540" height="340">
<rect width="540" height="340" rx="43" transform="matrix(-1 0 0 1 540 0)" fill="white"/>
</mask>
<g mask="url(#mask0)">
<path fill-rule="evenodd" clip-rule="evenodd" d="M508.815 -42.9989C468.962 -42.9678 426.983 -39.9623 399.714 -7.59333C370.007 27.6678 355.39 78.7705 366.966 125.374C378.062 170.043 417.493 193.71 454.811 214.214C492.77 235.071 535.765 260.269 573.462 238.832C610.643 217.687 615.026 163.993 623.278 118.412C631.139 74.9902 642.758 26.9968 618.108 -7.76376C593.375 -42.6401 548.717 -43.03 508.815 -42.9989Z" fill="#F0F0F0"/>
<path fill-rule="evenodd" clip-rule="evenodd" d="M513.473 -25.999C476.721 -25.9703 438.007 -23.1928 412.858 6.72064C385.462 39.3068 371.982 86.5327 382.658 129.6C392.891 170.881 429.255 192.752 463.67 211.701C498.677 230.975 538.328 254.262 573.093 234.451C607.382 214.911 611.424 165.29 619.034 123.167C626.284 83.0392 636.999 38.6867 614.266 6.56314C591.457 -25.6674 550.272 -26.0278 513.473 -25.999Z" fill="url(#paint0_linear)"/>
</g>
<path d="M517.568 85.361C517.466 85.361 517.364 85.3097 517.262 85.3097H416.738C415.767 85.3097 415 86.0796 415 87.0548C415 87.1575 415 87.2601 415.051 87.3628C419.193 110.357 439.134 127.09 462.449 127.09H471.602C494.866 127.09 514.858 110.409 519 87.3628C519.102 86.4389 518.489 85.515 517.568 85.361ZM471.551 123.6H462.398C448.593 123.6 435.503 117.184 427.067 106.2H437.498V111.435H440.974V106.2H451.354V116.619H454.882V106.2H465.262V116.619H468.738V106.2H479.118V116.619H482.595V106.2H492.974V111.435H496.451V106.2H506.882C498.445 117.184 485.407 123.6 471.551 123.6ZM509.336 102.71H496.451V94.0354H492.974V102.71H482.595V94.0354H479.118V102.71H468.738V94.0354H465.262V102.71H454.882V94.0354H451.405V102.71H440.974V94.0354H437.498V102.71H424.613C421.903 98.4495 419.96 93.7274 418.835 88.8H515.114C513.989 93.7274 512.046 98.4495 509.336 102.71Z" fill="white"/>
<path d="M432.282 62.4177C432.18 61.6991 431.566 61.1345 430.85 60.9805C428.038 60.5186 425.788 58.2602 425.328 55.4372C425.226 54.5133 424.306 53.846 423.385 54C422.669 54.1026 422.107 54.7186 421.954 55.4372C421.493 58.2602 419.295 60.5186 416.432 60.9805C415.511 61.1345 414.846 62.0584 415 62.9823C415.102 63.7009 415.716 64.2655 416.432 64.4195C419.244 64.8814 421.493 67.1398 421.954 69.9628C422.107 70.8867 423.027 71.554 423.948 71.4C424.664 71.2973 425.226 70.6814 425.379 69.9628C425.84 67.1398 428.038 64.8814 430.902 64.4195C431.822 64.2655 432.435 63.3416 432.282 62.4177ZM423.641 65.1894C422.976 64.2141 422.107 63.3929 421.187 62.7256C422.158 62.0584 422.976 61.1858 423.641 60.2619C424.306 61.2372 425.175 62.0584 426.095 62.7256C425.175 63.3929 424.357 64.2141 423.641 65.1894Z" fill="white"/>
<path d="M512.2 112.359C504.479 127.757 488.782 137.458 471.602 137.51H462.347C445.167 137.51 429.47 127.757 421.749 112.359L418.63 113.899C426.965 130.478 443.889 140.949 462.347 140.949H471.602C490.111 140.949 506.984 130.478 515.319 113.899L512.2 112.359Z" fill="white"/>
<path d="M477.737 69.7062C477.226 69.6035 476.664 69.7062 476.255 70.0655L466.949 77.8159L457.694 70.0655C457.285 69.7062 456.723 69.6035 456.211 69.7062L416.329 78.3805L417.045 81.7681L456.058 73.2478L465.824 81.4088C466.489 81.9734 467.409 81.9734 468.023 81.4088L477.789 73.2478L516.801 81.7681L517.517 78.3805L477.737 69.7062Z" fill="white"/>
<defs>
<linearGradient id="paint0_linear" x1="611.335" y1="241.998" x2="417.258" y2="241.998" gradientUnits="userSpaceOnUse">
<stop stop-color="#00A02B"/>
<stop offset="1" stop-color="#00B831"/>
</linearGradient>
</defs>
</svg>
