<svg width="540" height="340" viewBox="0 0 540 340" fill="none" xmlns="http://www.w3.org/2000/svg">
<mask id="mask0" mask-type="alpha" maskUnits="userSpaceOnUse" x="0" y="0" width="540" height="340">
<rect width="540" height="340" rx="43" fill="white"/>
</mask>
<g mask="url(#mask0)">
<path fill-rule="evenodd" clip-rule="evenodd" d="M31.1854 -42.9989C71.0379 -42.9678 113.017 -39.9623 140.286 -7.59333C169.993 27.6678 184.61 78.7705 173.034 125.374C161.938 170.043 122.507 193.71 85.1888 214.214C47.2298 235.071 4.23523 260.269 -33.462 238.832C-70.6435 217.687 -75.0255 163.993 -83.2778 118.412C-91.1392 74.9902 -102.758 26.9968 -78.1076 -7.76376C-53.3753 -42.6401 -8.71684 -43.03 31.1854 -42.9989Z" fill="#F0F0F0"/>
<path fill-rule="evenodd" clip-rule="evenodd" d="M26.5265 -25.999C63.2794 -25.9703 101.993 -23.1928 127.142 6.72064C154.538 39.3068 168.018 86.5327 157.342 129.6C147.109 170.881 110.745 192.752 76.3297 211.701C41.3231 230.975 1.67249 254.262 -33.0927 234.451C-67.3823 214.911 -71.4235 165.29 -79.034 123.167C-86.284 83.0392 -96.9989 38.6867 -74.2659 6.56314C-51.4572 -25.6674 -10.2722 -26.0278 26.5265 -25.999Z" fill="url(#paint0_linear)"/>
</g>
<path d="M84.6895 55C82.3432 55 80.049 55.4664 77.8591 56.3992C71.863 58.9384 65.0848 58.9384 59.0887 56.3992C50.3292 52.6681 40.1619 56.7101 36.4078 65.4678C35.4693 67.5924 35 69.8725 35 72.2045C35 79.3557 36.6685 86.4552 39.849 92.881L42.5082 101.794C42.7689 102.571 43.4467 103.09 44.2809 103.09H49.8599V112.314C49.8599 113.35 50.6942 114.179 51.737 114.179H57.316V118.48L51.9455 117.91L51.5284 121.59L57.316 122.211V129.57L51.9455 129L51.5284 132.679L57.316 133.301V140.66L51.9455 140.09L51.5284 143.769L57.316 144.391V151.749L51.9455 151.179L51.5284 154.859L57.4202 155.532V155.584L61.1222 164.808C61.3829 165.534 62.1128 166 62.8428 165.948H74.1051C74.8872 165.948 75.565 165.482 75.8257 164.808L78.6412 157.864L85.0545 158.59L85.4716 154.91L79.684 154.289V146.93L85.0545 147.5L85.4716 143.821L79.684 143.199V135.84L85.0545 136.359L85.4716 132.679L79.684 132.057V124.699L85.0545 125.269L85.4716 121.59L79.684 120.968V114.179H85.263C86.3058 114.179 87.1401 113.35 87.1401 112.314V103.09H92.7191C93.5533 103.09 94.2833 102.571 94.4918 101.742L97.151 92.8291C100.332 86.4034 102 79.3557 102 72.1527C102 62.7213 94.2311 55 84.6895 55ZM72.8016 162.269H64.1984L61.6436 155.999L74.7829 157.45L72.8016 162.269ZM75.93 153.822L61.07 152.216V144.857L75.9821 146.515V153.822H75.93ZM75.93 142.732L61.07 141.126V133.768L75.9821 135.426V142.732H75.93ZM75.93 131.643L61.07 129.985V122.626L75.9821 124.284V131.643H75.93ZM75.93 120.553L61.07 118.895V114.179H75.9821V120.553H75.93ZM83.386 110.5H53.614V103.09H83.386V110.5ZM93.7097 91.3781C93.6576 91.4818 93.6054 91.5854 93.6054 91.6891L91.3113 99.4104H45.6887L43.3946 91.6891C43.3424 91.5854 43.3424 91.4818 43.2903 91.3781C40.3183 85.4188 38.7541 78.8894 38.7541 72.2045C38.7541 64.7423 44.8545 58.6793 52.3626 58.6793C54.1875 58.6793 56.0124 59.042 57.6809 59.7675C64.6156 62.7213 72.4366 62.7213 79.3712 59.7675C86.2537 56.8137 94.2311 60.0266 97.2031 66.8669C97.9331 68.5252 98.298 70.3389 98.298 72.1527C98.2459 78.8375 96.7338 85.4188 93.7097 91.3781Z" fill="white"/>
<path d="M48.9736 62.6177C45.0631 64.6905 42.5603 68.6807 42.4561 73.0855V75.3138H46.158V73.1373C46.2623 70.028 48.035 67.2815 50.7985 65.8306L48.9736 62.6177Z" fill="white"/>
<defs>
<linearGradient id="paint0_linear" x1="-71.3352" y1="241.998" x2="122.742" y2="241.998" gradientUnits="userSpaceOnUse">
<stop stop-color="#00A02B"/>
<stop offset="1" stop-color="#00B831"/>
</linearGradient>
</defs>
</svg>
