<svg width="540" height="340" viewBox="0 0 540 340" fill="none" xmlns="http://www.w3.org/2000/svg">
<mask id="mask0" mask-type="alpha" maskUnits="userSpaceOnUse" x="0" y="0" width="540" height="340">
<rect width="540" height="340" rx="43" transform="matrix(-1 0 0 1 540 0)" fill="white"/>
</mask>
<g mask="url(#mask0)">
<path fill-rule="evenodd" clip-rule="evenodd" d="M508.815 -42.9989C468.962 -42.9678 426.983 -39.9623 399.714 -7.59333C370.007 27.6678 355.39 78.7705 366.966 125.374C378.062 170.043 417.493 193.71 454.811 214.214C492.77 235.071 535.765 260.269 573.462 238.832C610.643 217.687 615.026 163.993 623.278 118.412C631.139 74.9902 642.758 26.9968 618.108 -7.76376C593.375 -42.6401 548.717 -43.03 508.815 -42.9989Z" fill="#F0F0F0"/>
<path fill-rule="evenodd" clip-rule="evenodd" d="M513.473 -25.999C476.721 -25.9703 438.007 -23.1928 412.858 6.72064C385.462 39.3068 371.982 86.5327 382.658 129.6C392.891 170.881 429.255 192.752 463.67 211.701C498.677 230.975 538.328 254.262 573.093 234.451C607.382 214.911 611.424 165.29 619.034 123.167C626.284 83.0392 636.999 38.6867 614.266 6.56314C591.457 -25.6674 550.272 -26.0278 513.473 -25.999Z" fill="url(#paint0_linear)"/>
</g>
<path d="M489.134 49.0701C485.549 49.0701 481.965 49.8081 478.644 51.2314C473.741 53.2873 468.259 53.2873 463.357 51.2314C449.862 45.4328 434.258 51.7058 428.46 65.2007C427.036 68.5217 426.298 72.0536 426.298 75.6909C426.298 86.6554 429.356 97.4092 435.207 106.687L435.734 107.53L443.747 142.902C444.801 147.54 449.44 150.492 454.079 149.438C457.505 148.647 460.141 145.906 460.721 142.427L466.309 108.901C466.73 106.318 469.208 104.578 471.738 105C473.741 105.316 475.27 106.898 475.639 108.901L481.227 142.427C482.017 147.119 486.498 150.334 491.19 149.544C494.669 148.964 497.41 146.328 498.201 142.902L506.266 107.53L506.793 106.687C512.592 97.4092 515.702 86.6554 515.702 75.6909C515.702 60.9836 503.788 49.0701 489.134 49.0701ZM503.63 104.684L502.945 105.791C502.84 105.949 502.734 106.16 502.681 106.371L494.563 142.058C493.984 144.694 491.295 146.381 488.659 145.748C486.709 145.326 485.233 143.745 484.864 141.742L479.276 108.216C478.486 103.629 474.163 100.519 469.524 101.257C465.94 101.837 463.146 104.631 462.566 108.216L456.978 141.742C456.556 144.43 453.973 146.223 451.285 145.801C449.335 145.485 447.753 143.956 447.279 142.005L439.161 106.318C439.108 106.107 439.055 105.896 438.897 105.738L438.212 104.631C432.888 95.9859 430.041 85.9174 430.041 75.6909C430.041 63.0921 440.268 52.8656 452.919 52.8128C456.029 52.8128 459.087 53.4454 461.933 54.6578C467.732 57.1354 474.321 57.1354 480.12 54.6578C491.717 49.7027 505.159 55.0796 510.167 66.6767C511.379 69.5233 512.012 72.5807 512.012 75.6909C511.959 85.9174 509.113 95.9859 503.63 104.684Z" fill="white"/>
<path d="M485.165 68.0679C484.419 68.0679 483.772 68.7209 483.772 69.5916V72.0948C483.772 72.9111 484.369 73.5097 485.066 73.5097H485.215C485.961 73.5097 486.509 72.8567 486.509 72.0948V69.5372C486.509 68.7209 485.912 68.1223 485.215 68.1223L485.165 68.0679Z" fill="white"/>
<path d="M453.21 68.0679C450.953 68.0679 449.105 69.8818 449.105 72.0989C449.105 72.8547 449.721 73.5097 450.542 73.5097C451.312 73.5097 451.979 72.9051 451.979 72.0989C451.979 71.4438 452.543 70.8896 453.21 70.8896C453.878 70.8896 454.442 71.4438 454.442 72.0989C454.442 72.8547 455.058 73.5097 455.879 73.5097C456.649 73.5097 457.316 72.9051 457.316 72.0989C457.316 69.8818 455.468 68.0679 453.21 68.0679Z" fill="white"/>
<path d="M471 75.3237C468.62 75.3237 463.702 75.3237 463.702 80.8189C463.702 85.1938 466.875 88.9284 471 88.9284C475.019 88.9284 478.298 85.3005 478.298 80.8189C478.298 78.5782 477.452 76.9776 475.76 76.124C474.543 75.4838 472.957 75.3237 471 75.3237Z" fill="white"/>
<defs>
<linearGradient id="paint0_linear" x1="611.335" y1="241.998" x2="417.258" y2="241.998" gradientUnits="userSpaceOnUse">
<stop stop-color="#00A02B"/>
<stop offset="1" stop-color="#00B831"/>
</linearGradient>
</defs>
</svg>
