<svg width="263" height="60" viewBox="0 0 263 60" fill="none" xmlns="http://www.w3.org/2000/svg">
<path d="M79.8115 11.1239C81.4732 15.1291 78.7889 20.7107 71.3324 25.8664C70.2246 26.6333 69.0316 27.3577 67.7107 28.1246C89.3131 9.67518 71.5881 3.02828 35.8396 19.3473C35.797 19.3473 35.7544 19.3899 35.7544 19.3899C1.28426 36.9445 -4.93656 54.9253 22.5032 49.8123C21.0972 50.3662 19.7763 50.8349 18.498 51.2183C9.89115 53.8174 4.0112 52.3262 2.09382 48.4488C1.83817 47.8949 1.62513 47.2558 1.49731 46.574C1.19905 39.9697 15.345 27.9968 34.3484 17.7708C34.604 17.6429 34.9023 17.4725 35.1579 17.3447C35.5414 17.1743 35.9249 17.0038 36.3083 16.8334C56.1212 8.43954 74.1446 4.98826 78.8315 9.50475C79.2576 10.0161 79.5558 10.57 79.8115 11.1239Z" fill="white"/>
<path d="M1.79563 6.77778C1.32694 7.33169 0.943463 7.92821 0.645204 8.56733C-1.31478 12.9134 1.1565 18.8359 8.52775 24.0768C9.63557 24.8437 10.8286 25.6107 12.1069 26.3776C-2.80607 12.8708 2.09389 5.07345 18.8816 7.41691C19.0094 6.69256 19.2225 5.92561 19.2651 5.24388C10.9138 3.75259 4.47996 4.13606 1.79563 6.77778Z" fill="white"/>
<path d="M62.6404 27.9116C62.1717 28.3803 61.703 28.8916 61.3621 29.5733C83.4759 44.5715 83.9019 57.9505 60.0413 54.0305C61.4473 54.5845 62.7682 55.0532 64.0891 55.4366C72.7812 57.9079 78.9168 56.161 81.1324 51.9001C81.4307 51.261 81.6863 50.6219 81.8141 49.8975C82.368 44.4863 74.6133 36.135 62.6404 27.9116Z" fill="white"/>
<path fill-rule="evenodd" clip-rule="evenodd" d="M49.6876 7.50217C50.5823 7.45957 50.838 8.73782 49.9858 9.03607C44.958 10.9108 39.0781 8.48217 33.9651 6.13871C24.3356 1.79265 21.8217 6.22392 22.2052 16.2795C22.2052 16.6204 22.2478 16.9186 22.333 17.2595C22.4182 17.643 22.5034 18.0264 22.5887 18.4099C22.7165 18.836 22.8443 19.2621 22.9721 19.7308C23.1426 20.1995 23.2704 20.6682 23.4408 21.1368C23.6113 21.6055 23.7817 22.1168 23.9947 22.5855C24.1652 23.0542 24.3782 23.5655 24.5912 24.0342C24.8043 24.5029 24.9747 24.9716 25.1878 25.4403C25.3582 25.8664 25.5712 26.3351 25.7843 26.7612C25.9547 27.1446 26.1251 27.5281 26.2956 27.9542C26.466 28.2951 26.5938 28.6359 26.7643 28.9342C26.8921 29.1898 27.0199 29.4455 27.1051 29.7011C27.1904 29.8716 27.233 30.042 27.3182 30.1698C27.446 30.4681 27.4886 30.8089 27.5312 31.1072C27.5738 31.4055 27.5738 31.7037 27.6164 32.002C27.6164 32.6837 27.5738 33.3654 27.446 34.0472C27.3608 34.5159 27.2756 34.942 27.1477 35.4106C25.9973 39.5437 25.7843 42.5262 26.3808 46.9149C26.4234 47.3836 26.5938 47.8949 26.7643 48.4914C27.0625 49.4714 25.6991 49.9827 25.273 49.0453C23.3556 44.4436 23.4834 39.3732 24.0373 34.5159C24.0799 34.0472 24.1652 33.5359 24.1652 33.0672C24.2078 31.4055 22.7591 29.7863 21.9921 28.3803C21.353 27.2725 20.6713 26.122 20.0748 24.9716C16.24 17.3447 16.6235 -5.02468 32.1329 1.0257C39.6746 3.96568 41.5068 7.84304 49.6876 7.50217Z" fill="white"/>
<path fill-rule="evenodd" clip-rule="evenodd" d="M62.0867 10.8683C62.1719 11.4222 62.4701 17.5578 62.5553 18.0691C63.791 17.8561 64.9414 17.5152 66.2197 17.3022C68.3075 2.34665 62.4275 0.940571 56.6754 0.216229C50.7528 -0.550722 48.5798 3.19881 43.4668 4.1362C48.2815 4.90315 59.6154 -1.74376 62.0867 10.8683Z" fill="white"/>
<path fill-rule="evenodd" clip-rule="evenodd" d="M64.3874 23.9918C65.3674 22.0318 65.9639 19.6457 66.2196 17.1318C64.9839 17.3875 63.7483 17.6431 62.5553 17.9414C62.2996 24.077 56.1214 28.7213 57.357 34.7291C57.9109 37.2856 60.1266 43.7195 56.2918 53.6898C55.4823 55.7776 52.7979 58.5472 51.051 55.735C49.4319 53.1359 50.5823 33.9195 39.8876 38.2656C34.9024 40.2256 35.3711 48.1081 35.3711 54.2437C37.1607 52.6246 37.0328 41.9299 41.8476 41.3334C49.6875 40.396 43.1258 60.3367 52.6275 59.9958C55.4397 59.9106 57.144 57.7376 57.9109 55.3515C62.0013 42.3134 57.6979 38.223 59.1892 32.3004C59.8283 29.6587 62.47 27.8691 64.3874 23.9918Z" fill="white"/>
<path d="M129.085 35.485H127.3V16.34C127.3 15.815 126.985 15.5 126.46 15.5H112.74C112.215 15.5 111.935 15.815 111.935 16.34V27.12C111.935 31.53 111.025 33.91 109.8 35.52H108.33C107.805 35.52 107.525 35.8 107.525 36.325V38.775V44.235C107.525 44.76 107.805 45.075 108.33 45.075H111.48C112.04 45.075 112.32 44.76 112.32 44.235V40.035H125.095V44.235C125.095 44.76 125.41 45.075 125.935 45.075H129.085C129.61 45.075 129.925 44.76 129.925 44.235V40.035V36.325C129.925 35.8 129.61 35.52 129.085 35.52V35.485ZM115.015 35.52C115.925 33.91 116.73 31.46 116.73 27.19V20.05H122.47V35.52H115.015ZM146.852 35.38H137.962V29.885H145.802C146.327 29.885 146.642 29.605 146.642 29.045V26.21C146.642 25.685 146.327 25.37 145.802 25.37H137.962V20.12H146.677C147.202 20.12 147.517 19.84 147.517 19.315V16.34C147.517 15.815 147.202 15.5 146.677 15.5H137.962H133.972C133.447 15.5 133.167 15.815 133.167 16.34V39.195C133.167 39.72 133.447 40 133.972 40H134.742H146.852C147.377 40 147.692 39.72 147.692 39.195V36.22C147.692 35.695 147.377 35.38 146.852 35.38ZM168.016 15.5H164.866C164.341 15.5 164.061 15.815 164.061 16.34V25.09H155.906V16.34C155.906 15.815 155.626 15.5 155.066 15.5H151.916C151.391 15.5 151.111 15.815 151.111 16.34V39.195C151.111 39.72 151.391 40 151.916 40H155.066C155.626 40 155.906 39.72 155.906 39.195V29.71H164.061V39.195C164.061 39.72 164.341 40 164.866 40H168.016C168.576 40 168.856 39.72 168.856 39.195V16.34C168.856 15.815 168.576 15.5 168.016 15.5ZM187.36 15.5H182.285H172.415C171.89 15.5 171.575 15.815 171.575 16.34V19.315C171.575 19.84 171.89 20.12 172.415 20.12H177.49V39.195C177.49 39.72 177.77 40 178.33 40H181.48C182.005 40 182.285 39.72 182.285 39.195V20.12H187.36C187.92 20.12 188.2 19.84 188.2 19.315V16.34C188.2 15.815 187.92 15.5 187.36 15.5ZM209.313 39.09L201.508 16.2C201.368 15.745 201.018 15.5 200.563 15.5H196.013C195.558 15.5 195.208 15.745 195.068 16.2L187.263 39.09C187.053 39.685 187.368 40 187.963 40H191.463C191.918 40 192.268 39.79 192.408 39.335L193.563 35.625H202.978L204.168 39.335C204.308 39.79 204.623 40 205.113 40H208.613C209.208 40 209.488 39.685 209.313 39.09ZM195.033 31.11L198.288 20.855L201.543 31.11H195.033ZM211.447 40.105C215.682 40.245 219.777 38.18 219.777 29.85V20.12H225.587V39.195C225.587 39.72 225.902 40 226.427 40H229.577C230.102 40 230.417 39.72 230.417 39.195V16.34C230.417 15.815 230.102 15.5 229.577 15.5H215.787C215.262 15.5 214.947 15.815 214.947 16.34V29.99C214.947 34.33 213.652 35.66 211.482 35.66C210.922 35.66 210.642 35.94 210.642 36.465V39.265C210.642 39.79 210.922 40.105 211.447 40.105ZM261.414 39.02L254.659 27.435L260.994 16.515C261.344 15.92 261.099 15.5 260.434 15.5H256.794C256.374 15.5 256.024 15.675 255.814 16.06L251.929 22.745L248.044 16.06C247.799 15.675 247.484 15.5 247.029 15.5H243.389C242.759 15.5 242.479 15.92 242.829 16.515L249.164 27.435L242.444 39.02C242.094 39.615 242.339 40 243.004 40H246.644C247.064 40 247.414 39.86 247.624 39.44L251.929 32.125L256.199 39.44C256.444 39.86 256.759 40 257.179 40H260.854C261.484 40 261.729 39.615 261.414 39.02Z" fill="white"/>
</svg>
